<svg id="Camada_1" data-name="Camada 1" xmlns="http://www.w3.org/2000/svg" viewBox="0 0 542.75 540.11"><defs><style>.cls-1{fill:#0047bb;}</style></defs><path class="cls-1" d="M242.22,405.61V332a30.35,30.35,0,0,1,30.34-30.35H405.61a17.13,17.13,0,0,0,17.13-17.13V138.25a17.13,17.13,0,0,0-17.13-17.14H259.36a17.14,17.14,0,0,0-17.14,17.14v133a30.35,30.35,0,0,1-8.89,21.46h0a30.32,30.32,0,0,1-21.45,8.88H138.25a17.14,17.14,0,0,0-17.14,17.14v86.84a17.13,17.13,0,0,0,17.14,17.13h86.83A17.13,17.13,0,0,0,242.22,405.61Z"/></svg>